<svg width="16" height="16" viewBox="0 0 16 16" fill="none" xmlns="http://www.w3.org/2000/svg">
<path fill-rule="evenodd" clip-rule="evenodd" d="M2.33301 6.87848C2.33301 3.81191 4.8956 1.33331 7.99531 1.33331C11.1038 1.33331 13.6663 3.81191 13.6663 6.87848C13.6663 8.42377 13.1043 9.8584 12.1793 11.0744C11.1589 12.4157 9.90111 13.5843 8.48537 14.5016C8.16135 14.7136 7.86892 14.7296 7.51331 14.5016C6.0895 13.5843 4.83173 12.4157 3.82001 11.0744C2.89433 9.8584 2.33301 8.42377 2.33301 6.87848ZM6.12916 7.05115C6.12916 8.07845 6.96745 8.88643 7.9953 8.88643C9.02384 8.88643 9.87019 8.07845 9.87019 7.05115C9.87019 6.03184 9.02384 5.18453 7.9953 5.18453C6.96745 5.18453 6.12916 6.03184 6.12916 7.05115Z" fill="white"/>
</svg>
